<svg width="50" height="50" viewBox="0 0 50 50" fill="none" xmlns="http://www.w3.org/2000/svg">
<path d="M25 0C11.1929 0 0 11.1929 0 25C0 38.8071 11.1929 50 25 50C38.8071 50 50 38.8071 50 25C50 11.1929 38.8071 0 25 0ZM25 3.34029C36.9627 3.34029 46.6597 13.0373 46.6597 25C46.6597 36.9627 36.9627 46.6613 25 46.6613C13.0373 46.6613 3.33871 36.9627 3.33871 25C3.33871 13.0373 13.0373 3.34029 25 3.34029ZM38.4323 22.5485C39.1518 23.2289 39.1295 24.2046 38.5922 24.8939C37.9351 25.5871 36.8993 25.6167 36.2468 25.0538C34.2087 23.2044 31.9784 21.4739 29.9036 19.5634C29.8972 19.645 29.341 19.1962 29.104 19.1902C28.8908 19.1902 28.7842 19.439 28.7842 19.9365C28.8888 21.9896 28.7363 24.1573 28.9707 26.1465C29.0596 26.875 29.104 27.2925 29.104 27.3991L31.5027 41.0452C31.6402 42.2983 30.9552 43.2343 29.8503 43.4439C28.7437 43.7449 27.6067 42.7907 27.4516 41.7915C27.4516 41.7915 25.5164 30.7729 25.4793 30.5974C25.4422 30.4219 25.3768 29.45 24.9995 29.3981C24.5148 29.574 24.571 30.3903 24.5197 30.5974C24.4685 30.8046 22.5474 41.7915 22.5474 41.7915C22.2233 42.9474 21.2268 43.6306 20.1488 43.4439C18.917 43.1359 18.3149 42.1515 18.4963 41.0452L20.895 27.3458C21.2492 24.8138 21.1615 22.5488 21.1615 19.9897C21.1615 19.4921 21.0638 19.2344 20.8684 19.2168C20.673 19.199 20.4153 19.3323 20.0955 19.6166L13.7521 25.0537C13.011 25.606 11.9748 25.514 11.4067 24.8938C10.8324 24.0732 10.8691 23.1852 11.5666 22.5484L19.8822 15.1923C20.2732 14.9435 20.6374 14.7748 20.975 14.6859C21.3127 14.5971 21.7302 14.5527 22.2276 14.5527H27.7713C28.2688 14.5527 28.6864 14.5971 29.024 14.6859C29.3616 14.7748 29.7258 14.9613 30.1168 15.2456C32.7643 17.568 35.5753 20.0666 38.4323 22.5485ZM28.668 9.93025C28.668 11.9439 27.0355 13.5763 25.022 13.5763C23.0083 13.5763 21.3759 11.9439 21.3759 9.93025C21.3759 7.91663 23.0083 6.28425 25.022 6.28425C27.0356 6.28421 28.668 7.91663 28.668 9.93025Z" fill="black"/>
</svg>
