<svg width="226" height="70" viewBox="0 0 226 70" fill="none" xmlns="http://www.w3.org/2000/svg">
<path d="M20.54 41.5L19.5 38.1H14.3L13.26 41.5H10L15.04 27.16H18.74L23.8 41.5H20.54ZM17.74 32.24C17.6733 32.0133 17.5867 31.7267 17.48 31.38C17.3733 31.0333 17.2667 30.68 17.16 30.32C17.0533 29.96 16.9667 29.6467 16.9 29.38C16.8333 29.6467 16.74 29.98 16.62 30.38C16.5133 30.7667 16.4067 31.14 16.3 31.5C16.2067 31.8467 16.1333 32.0933 16.08 32.24L15.06 35.56H18.78L17.74 32.24ZM34.6486 33.44C34.6486 34.0267 34.4619 34.5267 34.0886 34.94C33.7286 35.3533 33.1886 35.62 32.4686 35.74V35.82C33.2286 35.9133 33.8353 36.1733 34.2886 36.6C34.7553 37.0267 34.9886 37.5733 34.9886 38.24C34.9886 38.7067 34.8953 39.14 34.7086 39.54C34.5353 39.94 34.2553 40.2867 33.8686 40.58C33.4819 40.8733 32.9819 41.1 32.3686 41.26C31.7686 41.42 31.0353 41.5 30.1686 41.5H24.9686V30.58H30.1686C31.0219 30.58 31.7819 30.6733 32.4486 30.86C33.1286 31.0333 33.6619 31.3267 34.0486 31.74C34.4486 32.1533 34.6486 32.72 34.6486 33.44ZM31.9086 38.08C31.9086 37.6533 31.7419 37.3467 31.4086 37.16C31.0753 36.96 30.5753 36.86 29.9086 36.86H27.9486V39.44H29.9686C30.5286 39.44 30.9886 39.34 31.3486 39.14C31.7219 38.9267 31.9086 38.5733 31.9086 38.08ZM31.6286 33.68C31.6286 33.3333 31.4953 33.08 31.2286 32.92C30.9619 32.76 30.5686 32.68 30.0486 32.68H27.9486V34.84H29.7086C30.3353 34.84 30.8086 34.7533 31.1286 34.58C31.4619 34.3933 31.6286 34.0933 31.6286 33.68ZM46.1867 32.82H42.6067V41.5H39.6267V32.82H36.0467V30.58H46.1867V32.82ZM57.5261 36.02C57.5261 36.9267 57.3994 37.7333 57.1461 38.44C56.9061 39.1467 56.5528 39.7467 56.0861 40.24C55.6328 40.72 55.0794 41.0867 54.4261 41.34C53.7728 41.58 53.0328 41.7 52.2061 41.7C51.4461 41.7 50.7394 41.58 50.0861 41.34C49.4461 41.0867 48.8928 40.72 48.4261 40.24C47.9594 39.7467 47.5928 39.1467 47.3261 38.44C47.0728 37.7333 46.9461 36.9267 46.9461 36.02C46.9461 34.8067 47.1594 33.7867 47.5861 32.96C48.0128 32.12 48.6261 31.48 49.4261 31.04C50.2261 30.6 51.1728 30.38 52.2661 30.38C53.2928 30.38 54.1994 30.6 54.9861 31.04C55.7728 31.48 56.3928 32.12 56.8461 32.96C57.2994 33.7867 57.5261 34.8067 57.5261 36.02ZM49.9861 36.02C49.9861 36.74 50.0594 37.3467 50.2061 37.84C50.3661 38.32 50.6128 38.6867 50.9461 38.94C51.2794 39.18 51.7128 39.3 52.2461 39.3C52.7794 39.3 53.2061 39.18 53.5261 38.94C53.8594 38.6867 54.0994 38.32 54.2461 37.84C54.4061 37.3467 54.4861 36.74 54.4861 36.02C54.4861 35.3 54.4061 34.7 54.2461 34.22C54.0994 33.74 53.8594 33.38 53.5261 33.14C53.1928 32.9 52.7594 32.78 52.2261 32.78C51.4394 32.78 50.8661 33.0533 50.5061 33.6C50.1594 34.1333 49.9861 34.94 49.9861 36.02ZM65.6689 30.38C66.8956 30.38 67.8889 30.86 68.6489 31.82C69.4089 32.7667 69.7889 34.1667 69.7889 36.02C69.7889 37.26 69.6089 38.3067 69.2489 39.16C68.8889 40 68.3956 40.6333 67.7689 41.06C67.1422 41.4867 66.4156 41.7 65.5889 41.7C65.0689 41.7 64.6156 41.6333 64.2289 41.5C63.8556 41.3667 63.5356 41.1933 63.2689 40.98C63.0022 40.7667 62.7689 40.54 62.5689 40.3H62.4089C62.4622 40.5533 62.5022 40.82 62.5289 41.1C62.5556 41.3667 62.5689 41.6333 62.5689 41.9V46.3H59.5889V30.58H62.0089L62.4289 32H62.5689C62.7689 31.7067 63.0089 31.44 63.2889 31.2C63.5689 30.9467 63.9022 30.7467 64.2889 30.6C64.6889 30.4533 65.1489 30.38 65.6689 30.38ZM64.7089 32.76C64.1889 32.76 63.7756 32.8667 63.4689 33.08C63.1622 33.2933 62.9356 33.62 62.7889 34.06C62.6556 34.4867 62.5822 35.0267 62.5689 35.68V36C62.5689 36.7067 62.6356 37.3067 62.7689 37.8C62.9022 38.28 63.1289 38.6467 63.4489 38.9C63.7689 39.1533 64.2022 39.28 64.7489 39.28C65.2022 39.28 65.5756 39.1533 65.8689 38.9C66.1622 38.6467 66.3822 38.2733 66.5289 37.78C66.6756 37.2867 66.7489 36.6867 66.7489 35.98C66.7489 34.9133 66.5822 34.1133 66.2489 33.58C65.9289 33.0333 65.4156 32.76 64.7089 32.76ZM74.7252 34.9C74.7252 35.1267 74.7118 35.4067 74.6852 35.74C74.6718 36.0733 74.6518 36.4133 74.6252 36.76C74.6118 37.1067 74.5918 37.4133 74.5652 37.68C74.5385 37.9467 74.5185 38.1333 74.5052 38.24L79.5452 30.58H83.1252V41.5H80.2452V37.14C80.2452 36.78 80.2585 36.3867 80.2852 35.96C80.3118 35.52 80.3385 35.1133 80.3652 34.74C80.4052 34.3533 80.4318 34.06 80.4452 33.86L75.4252 41.5H71.8452V30.58H74.7252V34.9ZM89.8197 30.38C90.6064 30.38 91.3397 30.4867 92.0197 30.7C92.713 30.9 93.2664 31.2133 93.6797 31.64C94.1064 32.0667 94.3197 32.6133 94.3197 33.28C94.3197 33.9333 94.1197 34.4533 93.7197 34.84C93.333 35.2267 92.8064 35.5067 92.1397 35.68V35.78C92.6064 35.8867 93.0264 36.04 93.3997 36.24C93.773 36.4267 94.0664 36.6867 94.2797 37.02C94.5064 37.34 94.6197 37.7733 94.6197 38.32C94.6197 38.92 94.4264 39.48 94.0397 40C93.6664 40.5067 93.0797 40.92 92.2797 41.24C91.493 41.5467 90.4797 41.7 89.2397 41.7C88.653 41.7 88.0997 41.6733 87.5797 41.62C87.0597 41.5667 86.5864 41.4933 86.1597 41.4C85.733 41.2933 85.3597 41.1667 85.0397 41.02V38.56C85.493 38.7733 86.0464 38.9667 86.6997 39.14C87.3664 39.3133 88.073 39.4 88.8197 39.4C89.3664 39.4 89.853 39.36 90.2797 39.28C90.7197 39.2 91.0664 39.0667 91.3197 38.88C91.5864 38.6933 91.7197 38.4467 91.7197 38.14C91.7197 37.8467 91.6064 37.6067 91.3797 37.42C91.153 37.22 90.813 37.0733 90.3597 36.98C89.9064 36.8867 89.3264 36.84 88.6197 36.84H87.4597V34.78H88.5597C89.5464 34.78 90.3064 34.7 90.8397 34.54C91.3864 34.38 91.6597 34.08 91.6597 33.64C91.6597 33.2933 91.4864 33.0333 91.1397 32.86C90.793 32.6733 90.2264 32.58 89.4397 32.58C88.9197 32.58 88.353 32.64 87.7397 32.76C87.1264 32.88 86.5464 33.0533 85.9997 33.28L85.1197 31.2C85.7464 30.96 86.433 30.7667 87.1797 30.62C87.9264 30.46 88.8064 30.38 89.8197 30.38ZM101.013 30.36C102.48 30.36 103.6 30.68 104.373 31.32C105.16 31.9467 105.553 32.9133 105.553 34.22V41.5H103.473L102.893 40.02H102.813C102.507 40.4067 102.187 40.7267 101.853 40.98C101.533 41.2333 101.16 41.4133 100.733 41.52C100.32 41.64 99.8068 41.7 99.1934 41.7C98.5534 41.7 97.9734 41.58 97.4534 41.34C96.9468 41.0867 96.5468 40.7067 96.2534 40.2C95.9601 39.68 95.8134 39.0267 95.8134 38.24C95.8134 37.08 96.2201 36.2267 97.0334 35.68C97.8468 35.12 99.0668 34.8133 100.693 34.76L102.593 34.7V34.22C102.593 33.6467 102.44 33.2267 102.133 32.96C101.84 32.6933 101.427 32.56 100.893 32.56C100.36 32.56 99.8401 32.64 99.3334 32.8C98.8268 32.9467 98.3201 33.1333 97.8134 33.36L96.8334 31.34C97.4201 31.0333 98.0668 30.7933 98.7734 30.62C99.4934 30.4467 100.24 30.36 101.013 30.36ZM101.433 36.48C100.473 36.5067 99.8068 36.68 99.4334 37C99.0601 37.32 98.8734 37.74 98.8734 38.26C98.8734 38.7133 99.0068 39.04 99.2734 39.24C99.5401 39.4267 99.8868 39.52 100.313 39.52C100.953 39.52 101.493 39.3333 101.933 38.96C102.373 38.5733 102.593 38.0333 102.593 37.34V36.44L101.433 36.48ZM120.124 45.42H117.444V41.5H108.204V30.58H111.184V39.26H115.544V30.58H118.524V39.32H120.124V45.42ZM124.453 34.9C124.453 35.1267 124.44 35.4067 124.413 35.74C124.4 36.0733 124.38 36.4133 124.353 36.76C124.34 37.1067 124.32 37.4133 124.293 37.68C124.267 37.9467 124.247 38.1333 124.233 38.24L129.273 30.58H132.853V41.5H129.973V37.14C129.973 36.78 129.987 36.3867 130.013 35.96C130.04 35.52 130.067 35.1133 130.093 34.74C130.133 34.3533 130.16 34.06 130.173 33.86L125.153 41.5H121.573V30.58H124.453V34.9ZM137.228 41.5H134.008L136.948 37.18C136.574 37.02 136.221 36.8067 135.888 36.54C135.568 36.26 135.308 35.9067 135.108 35.48C134.908 35.0533 134.808 34.5467 134.808 33.96C134.808 32.8667 135.221 32.0333 136.048 31.46C136.874 30.8733 137.934 30.58 139.228 30.58H144.308V41.5H141.328V37.44H139.688L137.228 41.5ZM137.728 33.98C137.728 34.4333 137.908 34.7933 138.268 35.06C138.628 35.3133 139.094 35.44 139.668 35.44H141.328V32.68H139.288C138.754 32.68 138.361 32.8133 138.108 33.08C137.854 33.3333 137.728 33.6333 137.728 33.98Z" fill="black"/>
<path d="M191 10C177.193 10 166 21.1929 166 35C166 48.8071 177.193 60 191 60C204.807 60 216 48.8071 216 35C216 21.1929 204.807 10 191 10ZM191 13.3403C202.963 13.3403 212.66 23.0373 212.66 35C212.66 46.9627 202.963 56.6613 191 56.6613C179.037 56.6613 169.339 46.9628 169.339 35C169.339 23.0373 179.037 13.3403 191 13.3403ZM204.432 32.5485C205.152 33.2289 205.129 34.2046 204.592 34.8939C203.935 35.5871 202.899 35.6167 202.247 35.0538C200.209 33.2044 197.978 31.4739 195.904 29.5634C195.897 29.645 195.341 29.1962 195.104 29.1902C194.891 29.1902 194.784 29.439 194.784 29.9365C194.889 31.9896 194.736 34.1573 194.971 36.1465C195.06 36.875 195.104 37.2925 195.104 37.3991L197.503 51.0452C197.64 52.2983 196.955 53.2343 195.85 53.4439C194.744 53.7449 193.607 52.7907 193.452 51.7915C193.452 51.7915 191.516 40.7729 191.479 40.5974C191.442 40.4219 191.377 39.45 191 39.3981C190.515 39.574 190.571 40.3903 190.52 40.5974C190.469 40.8046 188.547 51.7915 188.547 51.7915C188.223 52.9474 187.227 53.6306 186.149 53.4439C184.917 53.1359 184.315 52.1515 184.496 51.0452L186.895 37.3458C187.249 34.8138 187.162 32.5488 187.162 29.9898C187.162 29.4921 187.064 29.2344 186.868 29.2168C186.673 29.199 186.415 29.3323 186.095 29.6166L179.752 35.0537C179.011 35.606 177.975 35.514 177.407 34.8938C176.832 34.0732 176.869 33.1852 177.567 32.5484L185.882 25.1923C186.273 24.9435 186.637 24.7748 186.975 24.6859C187.313 24.5971 187.73 24.5527 188.228 24.5527H193.771C194.269 24.5527 194.686 24.5971 195.024 24.6859C195.362 24.7748 195.726 24.9613 196.117 25.2456C198.764 27.568 201.575 30.0666 204.432 32.5485V32.5485ZM194.668 19.9303C194.668 21.9439 193.036 23.5763 191.022 23.5763C189.008 23.5763 187.376 21.9439 187.376 19.9303C187.376 17.9166 189.008 16.2843 191.022 16.2843C193.036 16.2842 194.668 17.9166 194.668 19.9303V19.9303Z" fill="black"/>
</svg>
