<svg width="37" height="37" viewBox="0 0 37 37" fill="none" xmlns="http://www.w3.org/2000/svg">
<path d="M4.20833 0.125H32.7917C35.0579 0.125 36.875 1.94208 36.875 4.20833V12.375H32.7917V4.20833H4.20833V32.7917H32.7917V24.625H36.875V32.7917C36.875 33.8746 36.4448 34.9132 35.679 35.679C34.9132 36.4448 33.8746 36.875 32.7917 36.875H4.20833C3.12536 36.875 2.08675 36.4448 1.32098 35.679C0.555206 34.9132 0.124999 33.8746 0.124999 32.7917V4.20833C0.124999 3.12537 0.555206 2.08675 1.32098 1.32098C2.08675 0.555207 3.12536 0.125 4.20833 0.125ZM22.42 25.8092L19.5208 28.7083L9.3125 18.5L19.5208 8.29167L22.42 11.1704L17.1321 16.4583H36.875V20.5417H17.1321L22.42 25.8092Z" fill="#555555"/>
</svg>
