<svg width="216" height="69" viewBox="0 0 216 69" fill="none" xmlns="http://www.w3.org/2000/svg">
<path d="M16.7411 26.4387C18.5811 26.4387 19.9211 26.8387 20.7611 27.6387C21.6144 28.4254 22.0411 29.5121 22.0411 30.8987C22.0411 31.5254 21.9478 32.1254 21.7611 32.6987C21.5744 33.2587 21.2611 33.7654 20.8211 34.2187C20.3944 34.6587 19.8278 35.0054 19.1211 35.2587C18.4144 35.5121 17.5411 35.6387 16.5011 35.6387H15.2011V40.7188H12.1811V26.4387H16.7411ZM16.5811 28.9187H15.2011V33.1587H16.2011C16.7744 33.1587 17.2678 33.0854 17.6811 32.9387C18.0944 32.7921 18.4144 32.5587 18.6411 32.2387C18.8678 31.9187 18.9811 31.5054 18.9811 30.9987C18.9811 30.2921 18.7878 29.7721 18.4011 29.4387C18.0144 29.0921 17.4078 28.9187 16.5811 28.9187ZM28.5997 29.5987C29.613 29.5987 30.4797 29.7921 31.1997 30.1787C31.933 30.5654 32.4997 31.1254 32.8997 31.8587C33.2997 32.5921 33.4997 33.4921 33.4997 34.5587V35.9987H26.4597C26.4864 36.8387 26.733 37.4987 27.1997 37.9787C27.6797 38.4587 28.3397 38.6987 29.1797 38.6987C29.8864 38.6987 30.5264 38.6321 31.0997 38.4987C31.673 38.3521 32.2664 38.1321 32.8797 37.8387V40.1387C32.3464 40.4054 31.7797 40.5987 31.1797 40.7188C30.593 40.8521 29.8797 40.9188 29.0397 40.9188C27.9464 40.9188 26.9797 40.7188 26.1397 40.3187C25.2997 39.9054 24.6397 39.2854 24.1597 38.4587C23.6797 37.6321 23.4397 36.5921 23.4397 35.3387C23.4397 34.0587 23.653 32.9987 24.0797 32.1587C24.5197 31.3054 25.1264 30.6654 25.8997 30.2387C26.673 29.8121 27.573 29.5987 28.5997 29.5987ZM28.6197 31.7187C28.0464 31.7187 27.5664 31.9054 27.1797 32.2787C26.8064 32.6521 26.5864 33.2321 26.5197 34.0187H30.6997C30.6997 33.5787 30.6197 33.1854 30.4597 32.8387C30.313 32.4921 30.0864 32.2187 29.7797 32.0187C29.473 31.8187 29.0864 31.7187 28.6197 31.7187ZM43.0561 29.7987V32.0387H38.4961V40.7188H35.5161V29.7987H43.0561ZM47.5469 34.1187C47.5469 34.3454 47.5336 34.6254 47.5069 34.9587C47.4936 35.2921 47.4736 35.6321 47.4469 35.9787C47.4336 36.3254 47.4136 36.6321 47.3869 36.8987C47.3602 37.1654 47.3402 37.3521 47.3269 37.4587L52.3669 29.7987H55.9469V40.7188H53.0669V36.3587C53.0669 35.9987 53.0802 35.6054 53.1069 35.1787C53.1336 34.7387 53.1602 34.3321 53.1869 33.9587C53.2269 33.5721 53.2536 33.2787 53.2669 33.0787L48.2469 40.7188H44.6669V29.7987H47.5469V34.1187ZM63.1014 40.9188C62.0214 40.9188 61.1014 40.7254 60.3414 40.3387C59.5814 39.9387 59.0014 39.3254 58.6014 38.4987C58.2014 37.6721 58.0014 36.6121 58.0014 35.3187C58.0014 33.9854 58.2281 32.8987 58.6814 32.0587C59.1348 31.2187 59.7614 30.5987 60.5614 30.1987C61.3748 29.7987 62.3081 29.5987 63.3614 29.5987C64.1081 29.5987 64.7548 29.6721 65.3014 29.8187C65.8614 29.9654 66.3481 30.1387 66.7614 30.3387L65.8814 32.6387C65.4148 32.4521 64.9748 32.2987 64.5614 32.1787C64.1614 32.0587 63.7614 31.9987 63.3614 31.9987C62.8414 31.9987 62.4081 32.1254 62.0614 32.3787C61.7148 32.6187 61.4548 32.9854 61.2814 33.4787C61.1214 33.9587 61.0414 34.5654 61.0414 35.2987C61.0414 36.0187 61.1281 36.6187 61.3014 37.0987C61.4881 37.5654 61.7548 37.9187 62.1014 38.1587C62.4481 38.3854 62.8681 38.4987 63.3614 38.4987C63.9881 38.4987 64.5414 38.4187 65.0214 38.2587C65.5014 38.0854 65.9681 37.8521 66.4214 37.5587V40.0987C65.9681 40.3921 65.4881 40.5987 64.9814 40.7188C64.4881 40.8521 63.8614 40.9188 63.1014 40.9188ZM77.5749 32.0387H73.9949V40.7188H71.0149V32.0387H67.4349V29.7987H77.5749V32.0387ZM85.2695 29.5987C86.4962 29.5987 87.4895 30.0787 88.2495 31.0387C89.0095 31.9854 89.3895 33.3854 89.3895 35.2387C89.3895 36.4787 89.2095 37.5254 88.8495 38.3787C88.4895 39.2187 87.9962 39.8521 87.3695 40.2787C86.7429 40.7054 86.0162 40.9188 85.1895 40.9188C84.6695 40.9188 84.2162 40.8521 83.8295 40.7188C83.4562 40.5854 83.1362 40.4121 82.8695 40.1987C82.6029 39.9854 82.3695 39.7587 82.1695 39.5187H82.0095C82.0629 39.7721 82.1029 40.0387 82.1295 40.3187C82.1562 40.5854 82.1695 40.8521 82.1695 41.1188V45.5188H79.1895V29.7987H81.6095L82.0295 31.2187H82.1695C82.3695 30.9254 82.6095 30.6587 82.8895 30.4187C83.1695 30.1654 83.5029 29.9654 83.8895 29.8187C84.2895 29.6721 84.7495 29.5987 85.2695 29.5987ZM84.3095 31.9787C83.7895 31.9787 83.3762 32.0854 83.0695 32.2987C82.7629 32.5121 82.5362 32.8387 82.3895 33.2787C82.2562 33.7054 82.1829 34.2454 82.1695 34.8987V35.2187C82.1695 35.9254 82.2362 36.5254 82.3695 37.0187C82.5029 37.4987 82.7295 37.8654 83.0495 38.1187C83.3695 38.3721 83.8029 38.4987 84.3495 38.4987C84.8029 38.4987 85.1762 38.3721 85.4695 38.1187C85.7629 37.8654 85.9829 37.4921 86.1295 36.9987C86.2762 36.5054 86.3495 35.9054 86.3495 35.1987C86.3495 34.1321 86.1829 33.3321 85.8495 32.7987C85.5295 32.2521 85.0162 31.9787 84.3095 31.9787ZM95.9258 29.5787C97.3925 29.5787 98.5125 29.8987 99.2858 30.5387C100.072 31.1654 100.466 32.1321 100.466 33.4387V40.7188H98.3858L97.8058 39.2387H97.7258C97.4191 39.6254 97.0991 39.9454 96.7658 40.1987C96.4458 40.4521 96.0725 40.6321 95.6458 40.7388C95.2325 40.8588 94.7191 40.9188 94.1058 40.9188C93.4658 40.9188 92.8858 40.7988 92.3658 40.5587C91.8591 40.3054 91.4591 39.9254 91.1658 39.4187C90.8725 38.8987 90.7258 38.2454 90.7258 37.4587C90.7258 36.2987 91.1325 35.4454 91.9458 34.8987C92.7591 34.3387 93.9791 34.0321 95.6058 33.9787L97.5058 33.9187V33.4387C97.5058 32.8654 97.3525 32.4454 97.0458 32.1787C96.7525 31.9121 96.3391 31.7787 95.8058 31.7787C95.2725 31.7787 94.7525 31.8587 94.2458 32.0187C93.7391 32.1654 93.2325 32.3521 92.7258 32.5787L91.7458 30.5587C92.3325 30.2521 92.9791 30.0121 93.6858 29.8387C94.4058 29.6654 95.1525 29.5787 95.9258 29.5787ZM96.3458 35.6987C95.3858 35.7254 94.7191 35.8987 94.3458 36.2187C93.9725 36.5387 93.7858 36.9587 93.7858 37.4787C93.7858 37.9321 93.9191 38.2587 94.1858 38.4587C94.4525 38.6454 94.7991 38.7387 95.2258 38.7387C95.8658 38.7387 96.4058 38.5521 96.8458 38.1787C97.2858 37.7921 97.5058 37.2521 97.5058 36.5587V35.6587L96.3458 35.6987ZM115.036 44.6388H112.356V40.7188H103.116V29.7987H106.096V38.4787H110.456V29.7987H113.436V38.5387H115.036V44.6388ZM119.366 34.1187C119.366 34.3454 119.352 34.6254 119.326 34.9587C119.312 35.2921 119.292 35.6321 119.266 35.9787C119.252 36.3254 119.232 36.6321 119.206 36.8987C119.179 37.1654 119.159 37.3521 119.146 37.4587L124.186 29.7987H127.766V40.7188H124.886V36.3587C124.886 35.9987 124.899 35.6054 124.926 35.1787C124.952 34.7387 124.979 34.3321 125.006 33.9587C125.046 33.5721 125.072 33.2787 125.086 33.0787L120.066 40.7188H116.486V29.7987H119.366V34.1187ZM132.14 40.7188H128.92L131.86 36.3987C131.487 36.2387 131.133 36.0254 130.8 35.7587C130.48 35.4787 130.22 35.1254 130.02 34.6987C129.82 34.2721 129.72 33.7654 129.72 33.1787C129.72 32.0854 130.133 31.2521 130.96 30.6787C131.787 30.0921 132.847 29.7987 134.14 29.7987H139.22V40.7188H136.24V36.6587H134.6L132.14 40.7188ZM132.64 33.1987C132.64 33.6521 132.82 34.0121 133.18 34.2787C133.54 34.5321 134.007 34.6587 134.58 34.6587H136.24V31.8987H134.2C133.667 31.8987 133.273 32.0321 133.02 32.2987C132.767 32.5521 132.64 32.8521 132.64 33.1987Z" fill="black"/>
<path d="M183.497 10C182.089 10 180.673 10.3093 179.606 10.9287L165.277 19.1999C163.134 20.4377 161.381 23.4728 161.381 25.9464V42.4913C161.381 44.9655 163.134 48.0016 165.278 49.2388L179.606 57.5116C180.673 58.1292 182.088 58.4376 183.497 58.4376C184.911 58.4376 186.326 58.1292 187.393 57.5116L201.722 49.2388C203.862 48.0016 205.619 44.9655 205.619 42.4913V25.9463C205.619 23.4727 203.862 20.4375 201.722 19.1998L187.393 10.9288C186.326 10.3093 184.911 10 183.497 10ZM193.183 24.0989C193.596 24.0989 194.008 24.2554 194.321 24.5689L196.064 26.3099C196.689 26.9376 196.689 27.964 196.064 28.5911L180.787 43.8694C180.156 44.496 179.133 44.496 178.508 43.8694L171.775 37.1396C171.15 36.5132 171.283 35.3548 171.775 34.8604L173.519 33.1193C174.144 32.4916 175.173 32.4916 175.798 33.1193L178.508 35.827C179.133 36.4534 180.156 36.4534 180.787 35.827L192.041 24.5689C192.344 24.2672 192.755 24.0982 193.183 24.0989H193.183Z" fill="black"/>
</svg>
